<svg version="1.1" id="Layer_1" xmlns="http://www.w3.org/2000/svg" xmlns:xlink="http://www.w3.org/1999/xlink" x="0px" y="0px"
	 width="100%" viewBox="0 0 506 632" enable-background="new 0 0 506 632" xml:space="preserve">
<path fill="#1F2B54" opacity="1.000000" stroke="none" 
	d="
M1.000000,240.000000 
	C1.000000,160.017441 1.000000,80.534866 1.000000,1.026150 
	C169.612244,1.026150 338.224487,1.026150 506.918365,1.026150 
	C506.918365,211.566025 506.918365,422.132111 506.918365,632.849121 
	C338.333435,632.849121 169.666733,632.849121 1.000000,632.849121 
	C1.000000,502.108612 1.000000,371.304291 1.000000,240.000000 
M224.555374,78.654114 
	C223.960495,78.134193 223.365616,77.614273 222.359634,76.634224 
	C221.518066,75.229706 220.676498,73.825188 219.575638,71.823448 
	C218.955856,71.252701 218.336075,70.681953 217.202148,69.710625 
	C211.801056,64.481216 206.399979,59.251804 200.625641,53.540222 
	C197.818832,51.391956 196.919052,53.208218 196.464874,55.994526 
	C196.532364,56.264759 196.532578,56.535042 196.157074,57.435520 
	C196.801834,59.954777 197.446609,62.474033 198.276169,65.726868 
	C198.547760,67.469727 198.819351,69.212593 198.776291,71.606293 
	C199.450256,73.744576 200.124222,75.882858 200.972290,78.730896 
	C201.053101,79.456017 201.133926,80.181145 200.967773,81.430679 
	C201.123093,82.339607 201.278397,83.248535 201.497833,84.602104 
	C201.511002,84.907951 201.452484,85.199402 201.240128,86.290436 
	C201.874084,87.856400 202.508026,89.422363 203.362839,91.627632 
	C203.628418,92.722435 203.893997,93.817230 203.989456,95.451118 
	C205.179993,96.543091 206.370529,97.635063 208.203888,98.579796 
	C209.079559,98.593987 209.955231,98.608170 211.596878,99.035164 
	C216.785019,98.898666 221.973160,98.762169 228.036179,98.531227 
	C230.968063,98.562439 233.899948,98.593651 237.600632,99.037811 
	C239.220917,99.349312 240.840057,99.924507 242.461639,99.931458 
	C258.445953,100.000015 274.430969,100.020103 290.414856,99.915031 
	C292.334717,99.902412 294.249207,99.065811 296.812378,98.509995 
	C297.677521,98.573730 298.542694,98.637466 300.122803,98.602516 
	C302.571045,97.976562 304.016235,96.740608 303.005920,93.176682 
	C303.364563,90.786407 303.723206,88.396133 304.575287,85.566597 
	C304.955078,84.540276 305.334869,83.513954 305.618195,81.668671 
	C306.065765,78.443611 306.513336,75.218559 307.397614,71.704788 
	C307.561310,70.787445 307.725006,69.870102 307.927032,68.150467 
	C308.279236,65.766029 308.631439,63.381599 309.514404,60.519741 
	C309.578949,58.113453 309.643494,55.707161 309.708038,53.300869 
	C308.475586,53.588230 307.243103,53.875591 305.514923,54.260502 
	C305.179443,54.249474 304.843933,54.238445 303.815369,54.386429 
	C302.918549,55.352139 302.021729,56.317852 300.752991,57.817223 
	C297.607605,60.924255 294.462250,64.031288 290.650269,67.344841 
	C289.770966,68.571121 288.891663,69.797401 287.775085,71.406433 
	C287.598816,71.651642 287.395050,71.871346 286.623199,72.385017 
	C286.132263,73.050964 285.641357,73.716911 284.982849,74.833160 
	C284.713654,75.228271 284.444427,75.623383 283.632538,76.369133 
	C283.148987,77.068466 282.665405,77.767799 282.204437,78.768120 
	C282.204437,78.768120 282.144287,79.063904 281.310150,79.035736 
	C280.201782,79.026352 279.093445,79.016968 277.851868,78.516762 
	C277.834351,78.179298 277.816864,77.841827 277.577362,76.894829 
	C277.024933,76.265694 276.472534,75.636551 275.517731,74.478706 
	C269.345154,67.652710 263.172577,60.826710 256.645050,53.418175 
	C253.795822,50.537594 251.201385,50.068207 248.714523,54.620399 
	C248.134155,55.077812 247.553787,55.535225 246.277664,56.113461 
	C242.009064,57.652496 239.083221,60.451221 237.608917,65.513954 
	C235.439896,68.346443 233.270874,71.178940 230.580032,74.379929 
	C230.121033,75.089867 229.662033,75.799812 229.180038,77.013527 
	C229.095291,77.338402 229.010544,77.663277 228.224747,78.168434 
	C227.058197,78.566864 225.891632,78.965294 224.722427,79.256012 
	C224.722427,79.256012 224.814423,79.199951 224.555374,78.654114 
M172.243820,537.125610 
	C169.921097,540.162659 167.598373,543.199707 165.097626,546.584900 
	C165.097626,546.584900 164.904297,546.924744 164.269669,547.145630 
	C157.308029,553.883972 154.154663,562.624756 151.708771,571.636108 
	C148.644104,582.927185 150.347366,585.060974 161.937195,585.064148 
	C223.152359,585.080811 284.367523,585.073425 345.582703,585.069092 
	C347.079193,585.069031 348.585358,585.105164 350.070404,584.957336 
	C355.373413,584.429626 356.699463,581.908264 354.370270,576.197449 
	C354.326996,575.794006 354.283722,575.390625 354.467499,574.312073 
	C353.981323,565.743347 351.335327,558.077393 344.881104,551.552612 
	C344.881104,551.552612 344.654022,551.197754 344.657074,550.475403 
	C342.887421,547.534790 341.137756,544.581970 339.343719,541.656311 
	C336.258514,536.625122 332.900970,531.741028 330.135315,526.541199 
	C328.447357,523.367615 327.722015,519.692932 326.441254,516.289673 
	C323.895416,509.524811 321.264618,502.791931 318.541748,495.475281 
	C318.463470,495.093536 318.385162,494.711792 318.492126,493.532166 
	C316.902130,488.703339 315.312134,483.874542 313.605560,478.466370 
	C313.532928,478.079163 313.460297,477.691986 313.568390,476.466675 
	C311.939911,470.664093 310.311462,464.861481 308.572235,458.372955 
	C308.467438,457.686096 308.362640,456.999207 308.476685,455.476349 
	C307.533264,451.664673 306.589844,447.853027 305.568787,443.461823 
	C305.527191,443.074280 305.485596,442.686707 305.657684,441.510895 
	C305.134583,439.657928 304.611481,437.804993 303.965302,435.209290 
	C303.793427,434.220367 303.621521,433.231476 303.633728,431.352570 
	C302.599792,425.796753 301.565887,420.240906 300.489655,414.011536 
	C300.425690,413.339752 300.361755,412.667969 300.558563,411.260559 
	C299.838989,407.085968 299.119385,402.911346 298.364075,398.156799 
	C298.325684,397.771332 298.287323,397.385864 298.504211,396.247955 
	C297.553101,386.183105 296.601959,376.118286 295.618866,365.223999 
	C295.503357,361.482910 295.387817,357.741852 295.556671,353.234314 
	C295.494507,341.409332 295.432373,329.584381 295.420044,316.880493 
	C295.499817,313.907654 295.579559,310.934845 296.050720,307.260620 
	C296.787689,297.171021 297.524658,287.081451 298.331482,276.419464 
	C298.358429,276.036041 298.385376,275.652618 298.860779,274.733917 
	C299.335938,270.820953 299.811127,266.908020 300.368469,262.226044 
	C300.630066,260.187195 300.891663,258.148346 301.571136,255.800735 
	C301.630859,254.873215 301.690552,253.945694 301.856018,252.362854 
	C301.927734,251.926178 301.999451,251.489487 302.499634,250.768509 
	C302.549744,249.856049 302.599884,248.943573 302.771454,247.247528 
	C303.040100,245.151749 303.308746,243.055984 304.029663,240.347885 
	C305.552399,234.886505 304.748932,233.574356 299.152283,233.709961 
	C267.878632,233.650848 236.604965,233.591736 204.618347,233.535706 
	C200.447098,236.319244 200.201630,238.908951 203.635101,244.935059 
	C203.704971,245.625381 203.774857,246.315704 203.606186,247.705902 
	C204.940964,258.650299 206.263290,269.596313 207.644379,280.534851 
	C207.719620,281.130768 208.285553,281.664764 208.662415,282.924042 
	C208.725952,283.618530 208.789490,284.313019 208.599091,285.634979 
	C208.940155,287.496338 209.281235,289.357727 209.657120,291.837250 
	C209.697968,292.247894 209.738815,292.658508 209.491241,293.822693 
	C209.348526,295.806152 209.054764,297.792023 209.086700,299.772675 
	C209.378860,317.892517 209.707550,336.011902 210.094070,354.129944 
	C210.128799,355.757782 210.644150,357.375336 210.879868,359.623291 
	C210.851807,360.041077 210.823746,360.458862 210.313461,361.442657 
	C210.159698,367.280060 210.005951,373.117432 209.794769,379.725189 
	C209.748199,380.753357 209.701630,381.781525 209.229401,383.258331 
	C209.125916,384.837677 209.022430,386.416992 208.836746,388.606689 
	C208.789902,389.014618 208.743073,389.422516 208.225632,390.372345 
	C207.776779,395.579254 207.327911,400.786194 206.787354,406.596283 
	C206.740341,407.000305 206.693329,407.404297 206.173340,408.332275 
	C205.418716,414.220001 204.664078,420.107758 203.801208,426.593506 
	C203.740128,426.994019 203.679047,427.394501 203.119949,428.282745 
	C201.696289,436.185333 200.272629,444.087891 198.746368,452.581940 
	C198.685089,452.977417 198.623810,453.372925 198.046799,454.223694 
	C196.682678,460.481750 195.318542,466.739807 193.828842,473.593170 
	C193.753738,473.991730 193.678635,474.390320 193.083618,475.225739 
	C192.436630,476.552399 191.609726,477.822388 191.171143,479.214722 
	C187.777390,489.988922 184.479294,500.793182 181.110016,511.575165 
	C178.539673,519.800537 175.908554,528.006958 173.099609,536.573730 
	C173.099609,536.573730 172.886093,536.920410 172.243820,537.125610 
M276.960419,173.153748 
	C270.969086,173.109573 264.977783,173.065384 258.994293,172.177704 
	C258.990631,170.771469 258.986969,169.365250 259.480927,167.829529 
	C259.821838,167.802734 260.162750,167.775940 261.180145,167.613373 
	C262.123047,166.758499 263.065948,165.903610 264.638184,164.758926 
	C269.834290,160.647781 275.189575,156.720505 280.194366,152.388336 
	C291.637451,142.483154 298.936035,130.161972 301.708496,114.662125 
	C302.209747,111.943214 302.970154,109.227791 303.006744,106.502625 
	C303.014648,105.914886 300.413696,105.292076 298.076538,104.722504 
	C269.989380,104.736679 241.902191,104.734993 213.815063,104.774155 
	C204.709564,104.786850 203.920227,105.665436 204.037415,115.291420 
	C204.285599,115.867905 204.533768,116.444389 205.014328,117.769684 
	C210.690689,141.456818 226.883286,156.321243 247.184494,168.603149 
	C247.461319,170.075867 247.738129,171.548584 247.082184,173.036331 
	C242.434052,173.098175 237.785904,173.160019 232.493744,172.888107 
	C230.669113,173.199982 228.844482,173.511841 226.279541,173.936523 
	C216.066940,177.218964 209.891617,187.794754 211.754059,199.213898 
	C210.768311,199.579483 209.734024,200.273453 208.679794,200.305222 
	C199.764938,200.573959 194.329071,206.071777 190.307922,213.061768 
	C188.515793,216.177032 186.609802,220.504456 187.443207,223.545059 
	C188.615250,227.821274 193.765945,226.845963 197.504517,226.849747 
	C235.113602,226.887802 272.722748,226.868668 310.331879,226.837143 
	C318.901062,226.829956 321.614929,222.764328 317.461975,215.109451 
	C313.530487,207.862808 308.476593,201.447861 299.168945,200.595871 
	C297.145782,200.410690 294.821808,200.328140 295.189575,196.869522 
	C296.197510,187.390442 289.376129,177.277054 279.731537,173.527771 
	C279.114838,173.415253 278.498169,173.302719 276.960419,173.153748 
M459.603912,275.500122 
	C459.602936,223.668594 459.610748,171.837067 459.592804,120.005539 
	C459.589600,110.777908 458.888672,110.685806 450.131439,113.848488 
	C437.779938,118.309235 425.393066,123.027039 412.633759,125.933594 
	C381.220093,133.089584 349.479858,132.789108 317.778259,127.468399 
	C313.632568,126.772598 311.129333,127.518486 308.817780,131.466171 
	C303.885406,139.889603 298.430237,148.031052 292.794128,156.008896 
	C289.581909,160.555786 289.785675,162.192902 295.327301,163.418076 
	C324.131775,169.786331 353.215302,172.726471 382.690430,169.901230 
	C392.635864,168.947952 402.529785,167.463440 412.453339,166.272629 
	C417.935120,165.614822 419.480835,166.917877 419.750580,172.314529 
	C419.842010,174.143829 419.804352,175.980194 419.804443,177.813339 
	C419.806854,224.312027 419.159149,270.822174 419.983917,317.306244 
	C420.853943,366.342010 403.577454,408.295685 372.546356,445.056427 
	C360.654449,459.144043 347.067505,471.807312 334.137238,485.006226 
	C331.639069,487.556305 329.716125,489.938904 331.028137,493.737457 
	C334.454956,503.658722 337.691620,513.648071 341.276459,523.511230 
	C342.870422,527.896729 344.719971,528.210754 348.311768,525.198486 
	C374.974030,502.838745 399.414429,478.365234 419.140686,449.539185 
	C439.389709,419.949219 454.044739,387.782562 457.442657,351.889374 
	C459.806915,326.915283 458.995636,301.640564 459.603912,275.500122 
M48.359867,365.201691 
	C53.111172,389.109680 61.836521,411.615356 73.973915,432.609558 
	C95.409813,469.687561 124.159958,500.523346 157.352798,527.350586 
	C161.846741,530.982666 164.930359,530.391785 166.950928,525.059875 
	C170.421692,515.901367 173.130615,506.441345 176.867233,497.400452 
	C179.832047,490.226990 177.100281,486.047729 171.645676,481.763611 
	C165.639359,477.046143 159.861282,471.884521 154.723755,466.242584 
	C137.668518,447.512817 121.122734,428.395996 109.562523,405.504425 
	C97.706612,382.027344 89.528244,357.685242 89.729927,331.032898 
	C89.823135,318.715576 89.711304,306.396729 89.709747,294.078583 
	C89.704857,255.263809 89.705620,216.449020 89.715660,177.634247 
	C89.716179,175.636795 89.315292,173.423172 90.043846,171.711334 
	C90.612282,170.375717 92.880272,168.590363 93.993935,168.833420 
	C115.358307,173.496277 137.001480,173.050385 158.655472,172.869110 
	C176.912018,172.716263 194.775818,169.906540 212.423431,165.505005 
	C220.970581,163.373260 221.081802,161.270401 215.523087,154.182220 
	C209.720078,146.782501 204.477402,138.832870 199.926666,130.605438 
	C197.430374,126.092293 195.071808,123.842880 189.886078,125.030998 
	C172.506348,129.012924 154.823257,128.343201 137.184464,128.274643 
	C133.185013,128.259094 129.120621,128.687256 125.198029,128.127258 
	C112.065498,126.252449 98.766731,124.887474 85.946762,121.672058 
	C74.403099,118.776764 63.413742,113.681435 52.163326,109.602165 
	C47.484482,107.905663 45.499626,108.967354 45.162273,113.957489 
	C44.782215,119.579338 45.011524,125.242050 44.966026,130.886917 
	C44.729862,160.185745 44.457756,189.484360 44.285076,218.783569 
	C44.256664,223.604019 44.850948,228.427765 44.832584,233.248734 
	C44.720341,262.713257 44.077492,292.184113 44.528027,321.638855 
	C44.746048,335.892670 46.958008,350.116058 48.359867,365.201691 
z"/>
<path fill="#BF9D7F" opacity="1.000000" stroke="none" 
	d="
M459.603455,276.000122 
	C458.995636,301.640564 459.806915,326.915283 457.442657,351.889374 
	C454.044739,387.782562 439.389709,419.949219 419.140686,449.539185 
	C399.414429,478.365234 374.974030,502.838745 348.311768,525.198486 
	C344.719971,528.210754 342.870422,527.896729 341.276459,523.511230 
	C337.691620,513.648071 334.454956,503.658722 331.028137,493.737457 
	C329.716125,489.938904 331.639069,487.556305 334.137238,485.006226 
	C347.067505,471.807312 360.654449,459.144043 372.546356,445.056427 
	C403.577454,408.295685 420.853943,366.342010 419.983917,317.306244 
	C419.159149,270.822174 419.806854,224.312027 419.804443,177.813339 
	C419.804352,175.980194 419.842010,174.143829 419.750580,172.314529 
	C419.480835,166.917877 417.935120,165.614822 412.453339,166.272629 
	C402.529785,167.463440 392.635864,168.947952 382.690430,169.901230 
	C353.215302,172.726471 324.131775,169.786331 295.327301,163.418076 
	C289.785675,162.192902 289.581909,160.555786 292.794128,156.008896 
	C298.430237,148.031052 303.885406,139.889603 308.817780,131.466171 
	C311.129333,127.518486 313.632568,126.772598 317.778259,127.468399 
	C349.479858,132.789108 381.220093,133.089584 412.633759,125.933594 
	C425.393066,123.027039 437.779938,118.309235 450.131439,113.848488 
	C458.888672,110.685806 459.589600,110.777908 459.592804,120.005539 
	C459.610748,171.837067 459.602936,223.668594 459.603455,276.000122 
z"/>
<path fill="#525062" opacity="1.000000" stroke="none" 
	d="
M48.313530,364.777466 
	C46.958008,350.116058 44.746048,335.892670 44.528027,321.638855 
	C44.077492,292.184113 44.720341,262.713257 44.832584,233.248734 
	C44.850948,228.427765 44.256664,223.604019 44.285076,218.783569 
	C44.457756,189.484360 44.729862,160.185745 44.966026,130.886917 
	C45.011524,125.242050 44.782215,119.579338 45.162273,113.957489 
	C45.499626,108.967354 47.484482,107.905663 52.163326,109.602165 
	C63.413742,113.681435 74.403099,118.776764 85.946762,121.672058 
	C98.766731,124.887474 112.065498,126.252449 125.198029,128.127258 
	C129.120621,128.687256 133.185013,128.259094 137.184464,128.274643 
	C154.823257,128.343201 172.506348,129.012924 189.886078,125.030998 
	C195.071808,123.842880 197.430374,126.092293 199.926666,130.605438 
	C204.477402,138.832870 209.720078,146.782501 215.523087,154.182220 
	C221.081802,161.270401 220.970581,163.373260 212.423431,165.505005 
	C194.775818,169.906540 176.912018,172.716263 158.655472,172.869110 
	C137.001480,173.050385 115.358307,173.496277 93.993935,168.833420 
	C92.880272,168.590363 90.612282,170.375717 90.043846,171.711334 
	C89.315292,173.423172 89.716179,175.636795 89.715660,177.634247 
	C89.705620,216.449020 89.704857,255.263809 89.709747,294.078583 
	C89.711304,306.396729 89.823135,318.715576 89.729927,331.032898 
	C89.528244,357.685242 97.706612,382.027344 109.562523,405.504425 
	C121.122734,428.395996 137.668518,447.512817 154.723755,466.242584 
	C159.861282,471.884521 165.639359,477.046143 171.645676,481.763611 
	C177.100281,486.047729 179.832047,490.226990 176.867233,497.400452 
	C173.130615,506.441345 170.421692,515.901367 166.950928,525.059875 
	C164.930359,530.391785 161.846741,530.982666 157.352798,527.350586 
	C124.159958,500.523346 95.409813,469.687561 73.973915,432.609558 
	C61.836521,411.615356 53.111172,389.109680 48.313530,364.777466 
M82.290298,440.096527 
	C102.191505,471.498077 127.150902,498.373962 155.689041,522.033569 
	C162.286591,527.503235 162.949493,527.316956 165.760361,519.460388 
	C168.398209,512.087524 170.949387,504.682098 173.424194,497.252869 
	C175.950363,489.669342 175.795273,489.333008 169.652664,484.029846 
	C151.274918,468.163727 135.092102,450.302216 121.135185,430.441040 
	C97.874001,397.339600 85.179428,361.067078 85.790665,320.076447 
	C86.508675,271.926147 85.958023,223.756958 85.963463,175.595963 
	C85.964806,163.706757 86.057968,163.644073 97.776543,165.641388 
	C135.042892,171.993088 172.113724,170.841232 208.986465,162.658844 
	C215.011597,161.321823 215.229218,160.044693 211.690063,155.101929 
	C206.961029,148.497360 202.227524,141.834610 198.250595,134.771912 
	C194.942703,128.897354 194.339722,128.082901 187.388641,128.835785 
	C176.966690,129.964615 166.556381,131.447418 156.100601,131.972382 
	C122.057617,133.681595 88.919052,129.488586 57.379406,115.724762 
	C49.518383,112.294235 48.398617,113.037437 48.397060,121.475815 
	C48.384602,189.142014 48.624176,256.809235 48.318287,324.474030 
	C48.129429,366.251190 60.433739,404.144287 82.290298,440.096527 
z"/>
<path fill="#4A4A60" opacity="1.000000" stroke="none" 
	d="
M279.984589,173.839584 
	C289.376129,177.277054 296.197510,187.390442 295.189575,196.869522 
	C294.821808,200.328140 297.145782,200.410690 299.168945,200.595871 
	C308.476593,201.447861 313.530487,207.862808 317.461975,215.109451 
	C321.614929,222.764328 318.901062,226.829956 310.331879,226.837143 
	C272.722748,226.868668 235.113602,226.887802 197.504517,226.849747 
	C193.765945,226.845963 188.615250,227.821274 187.443207,223.545059 
	C186.609802,220.504456 188.515793,216.177032 190.307922,213.061768 
	C194.329071,206.071777 199.764938,200.573959 208.679794,200.305222 
	C209.734024,200.273453 210.768311,199.579483 211.754059,199.213898 
	C209.891617,187.794754 216.066940,177.218964 226.697800,174.091858 
	C227.116058,174.247192 227.189804,174.673996 226.979645,174.892914 
	C222.652969,179.604980 217.967331,183.712250 214.583679,188.702316 
	C211.351013,193.469696 213.475525,196.559723 219.283020,196.715347 
	C224.605835,196.857956 229.936325,196.700211 235.263443,196.698807 
	C252.582153,196.694199 269.902039,196.816711 287.218964,196.641800 
	C293.564026,196.577698 295.426544,193.612946 291.932251,188.445404 
	C288.540802,183.429962 283.892883,179.264160 279.837799,174.502563 
	C279.878876,174.279907 279.984589,173.839584 279.984589,173.839584 
M195.445358,210.998215 
	C194.017654,213.234909 192.283203,215.337296 191.231689,217.738724 
	C189.508499,221.674011 190.632996,223.308792 194.864120,223.704636 
	C196.187317,223.828430 197.527557,223.791901 198.859985,223.791885 
	C235.180542,223.791367 271.501099,223.786835 307.821655,223.778549 
	C309.154114,223.778244 310.494812,223.819382 311.817505,223.693008 
	C316.009674,223.292419 317.363342,221.445129 315.382233,217.701202 
	C310.729950,208.909256 305.894501,203.644638 295.604675,203.821335 
	C267.289673,204.307571 238.959686,204.123444 210.638351,203.883682 
	C204.440506,203.831223 199.556473,205.406677 195.445358,210.998215 
z"/>
<path fill="#6B6168" opacity="1.000000" stroke="none" 
	d="
M277.799377,77.504364 
	C277.816864,77.841827 277.834351,78.179298 277.990845,79.055428 
	C279.877686,82.519440 281.096893,81.442062 282.144287,79.063904 
	C282.144287,79.063904 282.204437,78.768120 282.454041,78.423935 
	C283.194153,77.392662 283.684692,76.705582 284.175232,76.018494 
	C284.444427,75.623383 284.713654,75.228271 285.328430,74.431137 
	C286.170593,73.374596 286.667206,72.720078 287.163788,72.065552 
	C287.395050,71.871346 287.598816,71.651642 288.170685,71.047760 
	C289.483154,69.505493 290.400024,68.321907 291.316864,67.138321 
	C294.462250,64.031288 297.607605,60.924255 301.240723,57.414150 
	C302.655090,56.083191 303.581787,55.155304 304.508453,54.227417 
	C304.843933,54.238445 305.179443,54.249474 306.064941,54.374737 
	C307.404572,56.658371 308.194122,58.827770 308.983643,60.997169 
	C308.631439,63.381599 308.279236,65.766029 307.739838,68.827209 
	C307.355377,70.333801 307.158142,71.163651 306.960907,71.993507 
	C306.513336,75.218559 306.065765,78.443611 305.423737,82.313370 
	C304.846802,83.973999 304.464325,84.989929 304.081848,86.005852 
	C303.723206,88.396133 303.364563,90.786407 302.738495,93.799774 
	C301.449982,95.848976 300.428925,97.275085 299.407837,98.701202 
	C298.542694,98.637466 297.677521,98.573730 296.086487,98.426804 
	C277.811096,98.183784 260.261780,97.998405 242.711929,97.899879 
	C240.753311,97.888878 238.791931,98.371284 236.831833,98.624870 
	C233.899948,98.593651 230.968063,98.562439 227.198395,98.443466 
	C221.184036,98.444595 216.007477,98.533470 210.830902,98.622345 
	C209.955231,98.608170 209.079559,98.593987 207.723434,98.366867 
	C206.215179,97.073303 205.187378,95.992668 204.159576,94.912033 
	C203.893997,93.817230 203.628418,92.722435 203.260101,90.927887 
	C202.545654,88.644257 201.933960,87.060356 201.322266,85.476456 
	C201.452484,85.199402 201.511002,84.907951 201.552643,84.110184 
	C201.476532,82.714256 201.345642,81.810265 201.214752,80.906265 
	C201.133926,80.181145 201.053101,79.456017 200.877029,78.006721 
	C200.218155,75.173515 199.654556,73.064484 199.090942,70.955452 
	C198.819351,69.212593 198.547760,67.469727 198.197144,64.963104 
	C197.567261,61.734692 197.016403,59.270035 196.465546,56.805382 
	C196.532578,56.535042 196.532364,56.264759 196.718277,55.683018 
	C198.314087,54.921803 199.656479,54.472095 200.998886,54.022392 
	C206.399979,59.251804 211.801056,64.481216 217.611389,70.189926 
	C218.625412,71.253044 219.230179,71.836853 219.834930,72.420670 
	C220.676498,73.825188 221.518066,75.229706 222.705750,77.130836 
	C223.639389,78.151619 224.226913,78.675789 224.814423,79.199951 
	C224.814423,79.199951 224.722427,79.256012 224.793915,79.575424 
	C227.983887,83.018059 228.100876,79.749283 228.925812,77.988159 
	C229.010544,77.663277 229.095291,77.338402 229.457123,76.572571 
	C230.190094,75.424881 230.645966,74.718163 231.101852,74.011436 
	C233.270874,71.178940 235.439896,68.346443 238.084503,65.075943 
	C241.364517,61.756161 244.168961,58.874397 246.973419,55.992638 
	C247.553787,55.535225 248.134155,55.077812 249.262085,54.341309 
	C252.206421,54.041718 254.603210,54.021217 257.000000,54.000717 
	C263.172577,60.826710 269.345154,67.652710 275.818420,75.046036 
	C276.679199,76.243698 277.239258,76.874031 277.799377,77.504364 
M247.363586,59.809368 
	C241.735504,66.966454 236.093384,74.112579 230.490891,81.289619 
	C229.335663,82.769493 228.328094,84.364624 227.252472,85.906639 
	C225.559052,84.464577 223.643768,83.213081 222.211975,81.546280 
	C217.018097,75.499962 212.055313,69.254684 206.839508,63.227978 
	C205.694260,61.904686 203.866699,61.171898 201.413361,59.543110 
	C201.413361,62.621666 201.144241,64.429794 201.459381,66.129601 
	C202.914810,73.980019 204.628342,81.782990 206.051773,89.638771 
	C206.749710,93.490578 208.932739,94.918480 212.640320,94.913338 
	C239.621445,94.875900 266.602631,94.877426 293.583801,94.901237 
	C297.706085,94.904869 300.094666,93.107620 300.855469,88.948624 
	C302.293854,81.085732 303.948120,73.262337 305.387543,65.399628 
	C305.683075,63.785435 305.430359,62.070873 305.430359,59.150070 
	C303.015472,60.770454 301.593048,61.357368 300.684540,62.394485 
	C294.994843,68.889664 289.182220,75.300621 283.889221,82.111664 
	C280.278503,86.757927 279.310669,86.565804 275.865723,81.631783 
	C270.479858,73.917854 264.449493,66.640961 258.480225,59.352516 
	C255.172195,55.313477 251.433197,55.491634 247.363586,59.809368 
z"/>
<path fill="#645D66" opacity="1.000000" stroke="none" 
	d="
M301.107971,115.020378 
	C298.936035,130.161972 291.637451,142.483154 280.194366,152.388336 
	C275.189575,156.720505 269.834290,160.647781 264.010437,164.984344 
	C262.423004,166.056213 261.463348,166.902679 260.503662,167.749146 
	C260.162750,167.775940 259.821838,167.802734 258.879089,167.957062 
	C254.531128,168.010040 250.784988,167.935455 247.038864,167.860870 
	C226.883286,156.321243 210.690689,141.456818 204.964905,117.194336 
	C204.667053,116.046486 204.418640,115.473969 204.170212,114.901459 
	C203.920227,105.665436 204.709564,104.786850 213.815063,104.774155 
	C241.902191,104.734993 269.989380,104.736679 298.768341,105.033226 
	C300.009430,108.569420 300.558716,111.794899 301.107971,115.020378 
M277.606354,151.124741 
	C288.451569,141.814301 295.842102,130.418915 298.458649,116.215439 
	C299.751495,109.197266 298.574677,107.770805 291.555115,107.752686 
	C273.222534,107.705345 254.889771,107.733437 236.557083,107.738625 
	C228.890884,107.740791 221.222336,107.650284 213.559326,107.812485 
	C208.530609,107.918938 207.245926,109.446861 208.058868,114.365807 
	C208.680222,118.125412 209.416458,121.946762 210.756149,125.493393 
	C217.752518,144.015274 231.845139,155.887756 248.789459,164.727875 
	C251.160660,165.964966 255.371277,165.930847 257.672150,164.623138 
	C264.425873,160.784653 270.646118,156.007523 277.606354,151.124741 
z"/>
<path fill="#897670" opacity="1.000000" stroke="none" 
	d="
M301.153290,256.109497 
	C300.891663,258.148346 300.630066,260.187195 300.106323,262.933167 
	C299.366882,267.516602 298.889587,271.392914 298.412292,275.269196 
	C298.385376,275.652618 298.358429,276.036041 298.100464,277.063232 
	C297.132690,287.792023 296.395996,297.877014 295.659302,307.962006 
	C295.579559,310.934845 295.499817,313.907654 295.206970,317.632507 
	C294.682281,326.160980 294.184296,333.936279 294.135101,341.714447 
	C294.109253,345.807343 294.867889,349.905151 295.272278,354.000763 
	C295.387817,357.741852 295.503357,361.482910 295.510376,366.013977 
	C295.393433,373.225830 295.384979,379.647705 295.153351,385.724243 
	C294.577240,383.763672 293.984589,382.159485 293.909088,380.531342 
	C293.261871,366.575287 292.352295,352.618866 292.198700,338.655090 
	C291.850128,306.963135 294.962524,275.536713 300.212555,244.296509 
	C301.466125,236.836868 300.709686,236.139084 293.259277,236.131409 
	C266.628021,236.103973 239.996735,236.119019 213.365463,236.127274 
	C212.035278,236.127686 210.700836,236.163544 209.375824,236.272995 
	C206.502686,236.510300 205.328125,237.889847 205.795593,240.932587 
	C207.713348,253.415390 209.652878,265.899628 211.223312,278.428589 
	C211.816254,283.159149 211.431198,288.012299 211.065918,292.887939 
	C210.353149,293.000549 210.066406,293.034851 209.779663,293.069153 
	C209.738815,292.658508 209.697968,292.247894 209.749619,291.205231 
	C209.512421,288.717987 209.182724,286.862732 208.853027,285.007507 
	C208.789490,284.313019 208.725952,283.618530 208.742432,282.126831 
	C208.572845,277.697052 208.585236,274.023163 208.020004,270.440338 
	C206.783813,262.604370 205.254364,254.814651 203.844727,247.006027 
	C203.774857,246.315704 203.704971,245.625381 203.673462,244.184311 
	C204.251633,240.133240 204.791473,236.832932 205.331314,233.532623 
	C236.604965,233.591736 267.878632,233.650848 299.770874,234.052643 
	C301.452087,236.583618 302.514740,238.771912 303.577393,240.960205 
	C303.308746,243.055984 303.040100,245.151749 302.557800,247.913467 
	C302.253143,249.403870 302.162140,250.228348 302.071167,251.052811 
	C301.999451,251.489487 301.927734,251.926178 301.640625,252.968658 
	C301.334564,254.419479 301.243927,255.264496 301.153290,256.109497 
z"/>
<path fill="#545162" opacity="1.000000" stroke="none" 
	d="
M354.425568,576.803772 
	C356.699463,581.908264 355.373413,584.429626 350.070404,584.957336 
	C348.585358,585.105164 347.079193,585.069031 345.582703,585.069092 
	C284.367523,585.073425 223.152359,585.080811 161.937195,585.064148 
	C150.347366,585.060974 148.644104,582.927185 151.708771,571.636108 
	C154.154663,562.624756 157.308029,553.883972 164.539444,547.384277 
	C163.934937,549.191711 162.947510,550.709167 162.207932,552.339111 
	C160.139526,556.897949 158.173599,561.503235 156.064423,566.416748 
	C155.792313,567.406677 155.622986,568.069946 155.226288,568.970825 
	C154.508926,571.786377 154.018921,574.364258 153.530930,577.376404 
	C153.631668,578.962524 153.730377,580.114441 153.988708,581.515381 
	C155.427719,581.937927 156.707077,582.111450 158.455780,582.278931 
	C221.929565,582.284607 284.934021,582.296387 348.265533,582.439331 
	C353.497803,583.643188 353.691925,579.950623 354.425568,576.803772 
z"/>
<path fill="#897670" opacity="1.000000" stroke="none" 
	d="
M313.387665,477.304779 
	C313.460297,477.691986 313.532928,478.079163 313.597717,479.065613 
	C315.162231,484.553284 316.734558,489.441650 318.306885,494.330048 
	C318.385162,494.711792 318.463470,495.093536 318.543243,496.070984 
	C318.883240,498.286926 319.036194,499.973724 319.589661,501.516846 
	C323.970764,513.731812 328.428131,525.919434 332.547729,537.991577 
	C330.166412,534.148865 327.567780,530.625854 326.114594,526.680786 
	C311.446869,486.861908 301.547821,445.862274 296.371490,403.743591 
	C295.726288,398.493652 295.769135,393.159180 295.728516,388.128357 
	C296.725525,391.262024 297.487244,394.131195 298.248962,397.000397 
	C298.287323,397.385864 298.325684,397.771332 298.287109,398.894836 
	C298.906036,403.753967 299.601929,407.875061 300.297791,411.996185 
	C300.361755,412.667969 300.425690,413.339752 300.415527,414.786011 
	C301.377472,421.121155 302.413544,426.681854 303.449615,432.242554 
	C303.621521,433.231476 303.793427,434.220367 303.928772,435.877472 
	C304.409485,438.463501 304.926758,440.381317 305.444000,442.299164 
	C305.485596,442.686707 305.527191,443.074280 305.521881,444.080200 
	C306.402588,448.569824 307.330231,452.441071 308.257874,456.312347 
	C308.362640,456.999207 308.467438,457.686096 308.545898,459.035217 
	C310.142242,465.566559 311.764954,471.435669 313.387665,477.304779 
z"/>
<path fill="#947E73" opacity="1.000000" stroke="none" 
	d="
M198.562531,453.768402 
	C198.623810,453.372925 198.685089,452.977417 199.040161,451.988800 
	C200.761978,443.528778 202.189972,435.661896 203.617981,427.795013 
	C203.679047,427.394501 203.740128,426.994019 204.084229,425.981873 
	C205.126953,419.516296 205.886642,413.662292 206.646332,407.808319 
	C206.693329,407.404297 206.740341,407.000305 207.076294,405.969543 
	C207.808914,400.172028 208.252563,395.001221 208.696228,389.830444 
	C208.743073,389.422516 208.789902,389.014618 209.100433,387.989380 
	C209.461105,385.851288 209.558075,384.330505 209.655045,382.809692 
	C209.701630,381.781525 209.748199,380.753357 210.252808,379.414551 
	C210.992767,379.173859 211.274689,379.243805 211.672287,379.669739 
	C211.781891,384.178986 212.352783,388.429016 211.675201,392.469666 
	C207.582367,416.876678 203.343216,441.261719 198.811447,465.590485 
	C197.825333,470.884399 195.449509,475.919403 193.634583,480.745789 
	C193.571472,478.541595 193.587509,476.665253 193.603546,474.788879 
	C193.678635,474.390320 193.753738,473.991730 194.126892,473.007996 
	C195.804153,466.204712 197.183350,459.986542 198.562531,453.768402 
z"/>
<path fill="#947E73" opacity="1.000000" stroke="none" 
	d="
M210.795685,360.876648 
	C210.823746,360.458862 210.851807,360.041077 211.130188,358.957703 
	C211.578720,357.489014 211.949402,356.685883 211.949524,355.882721 
	C211.951828,340.756561 211.895798,325.630371 211.890411,310.504211 
	C211.889359,307.570129 212.050156,304.635986 212.370850,301.923889 
	C213.048874,303.711304 213.872589,305.275421 213.878052,306.842346 
	C213.947433,326.743591 214.005707,346.646454 213.782120,366.545715 
	C213.742218,370.097778 212.410446,373.635345 211.555115,376.714508 
	C211.221954,371.125153 211.008820,366.000916 210.795685,360.876648 
z"/>
<path fill="#545162" opacity="1.000000" stroke="none" 
	d="
M193.343582,475.007324 
	C193.587509,476.665253 193.571472,478.541595 193.580017,481.001678 
	C193.558899,481.931427 193.513229,482.277496 193.229919,482.855042 
	C192.492447,484.802521 191.992615,486.518463 191.419891,488.529053 
	C191.273834,489.221497 191.200684,489.619385 190.895996,490.296661 
	C188.575699,496.705536 186.424225,502.814575 184.416595,508.970490 
	C182.566879,514.642151 180.871735,520.364197 179.007385,526.389160 
	C178.777588,527.380493 178.648895,528.046631 178.252228,528.906006 
	C176.424332,531.473389 174.864365,533.847595 173.304443,536.221802 
	C175.908554,528.006958 178.539673,519.800537 181.110016,511.575165 
	C184.479294,500.793182 187.777390,489.988922 191.171143,479.214722 
	C191.609726,477.822388 192.436630,476.552399 193.343582,475.007324 
z"/>
<path fill="#545162" opacity="1.000000" stroke="none" 
	d="
M212.136292,301.701874 
	C212.050156,304.635986 211.889359,307.570129 211.890411,310.504211 
	C211.895798,325.630371 211.951828,340.756561 211.949524,355.882721 
	C211.949402,356.685883 211.578720,357.489014 211.158417,358.644897 
	C210.644150,357.375336 210.128799,355.757782 210.094070,354.129944 
	C209.707550,336.011902 209.378860,317.892517 209.086700,299.772675 
	C209.054764,297.792023 209.348526,295.806152 209.635452,293.445923 
	C210.066406,293.034851 210.353149,293.000549 211.083176,293.347229 
	C211.729736,296.386078 211.933014,299.043976 212.136292,301.701874 
z"/>
<path fill="#545162" opacity="1.000000" stroke="none" 
	d="
M332.862061,538.115417 
	C328.428131,525.919434 323.970764,513.731812 319.589661,501.516846 
	C319.036194,499.973724 318.883240,498.286926 318.606812,496.356262 
	C321.264618,502.791931 323.895416,509.524811 326.441254,516.289673 
	C327.722015,519.692932 328.447357,523.367615 330.135315,526.541199 
	C332.900970,531.741028 336.258514,536.625122 339.343719,541.656311 
	C341.137756,544.581970 342.887421,547.534790 344.397339,550.692322 
	C343.153076,550.229736 342.168579,549.550293 341.098633,548.688965 
	C341.013184,548.507080 340.848389,548.140564 340.799988,547.826294 
	C339.940491,546.600952 339.129425,545.689880 338.211426,544.610535 
	C338.104462,544.442261 337.893341,544.104004 337.831116,543.771851 
	C336.272858,541.890137 334.776855,540.340454 333.174683,538.622925 
	C333.068542,538.454956 332.862061,538.115417 332.862061,538.115417 
z"/>
<path fill="#2E3658" opacity="1.000000" stroke="none" 
	d="
M237.216232,98.831345 
	C238.791931,98.371284 240.753311,97.888878 242.711929,97.899879 
	C260.261780,97.998405 277.811096,98.183784 295.763367,98.477371 
	C294.249207,99.065811 292.334717,99.902412 290.414856,99.915031 
	C274.430969,100.020103 258.445953,100.000015 242.461639,99.931458 
	C240.840057,99.924507 239.220917,99.349312 237.216232,98.831345 
z"/>
<path fill="#897670" opacity="1.000000" stroke="none" 
	d="
M341.184082,548.870789 
	C342.168579,549.550293 343.153076,550.229736 344.395813,551.053467 
	C344.654022,551.197754 344.881104,551.552612 345.042145,552.088989 
	C348.215607,560.079285 351.228027,567.533264 354.240417,574.987183 
	C354.283722,575.390625 354.326996,575.794006 354.397919,576.500610 
	C353.691925,579.950623 353.497803,583.643188 348.561035,582.186035 
	C353.114014,578.043701 351.448242,573.289246 349.924194,569.116089 
	C347.406891,562.223022 344.136902,555.604797 341.184082,548.870789 
z"/>
<path fill="#4A4A60" opacity="1.000000" stroke="none" 
	d="
M233.137772,173.221848 
	C237.785904,173.160019 242.434052,173.098175 248.004517,173.048370 
	C252.280045,173.047348 255.633255,173.034271 258.986450,173.021210 
	C264.977783,173.065384 270.969086,173.109573 277.437408,173.513824 
	C277.919006,174.102875 277.923645,174.331848 277.545624,174.676636 
	C262.464935,174.714035 247.766891,174.635605 233.081635,174.223129 
	C233.108887,173.666672 233.123322,173.444260 233.137772,173.221848 
z"/>
<path fill="#585462" opacity="1.000000" stroke="none" 
	d="
M295.414490,353.617554 
	C294.867889,349.905151 294.109253,345.807343 294.135101,341.714447 
	C294.184296,333.936279 294.682281,326.160980 295.182068,318.071960 
	C295.432373,329.584381 295.494507,341.409332 295.414490,353.617554 
z"/>
<path fill="#545162" opacity="1.000000" stroke="none" 
	d="
M203.725464,247.355957 
	C205.254364,254.814651 206.783813,262.604370 208.020004,270.440338 
	C208.585236,274.023163 208.572845,277.697052 208.722748,281.778625 
	C208.285553,281.664764 207.719620,281.130768 207.644379,280.534851 
	C206.263290,269.596313 204.940964,258.650299 203.725464,247.355957 
z"/>
<path fill="#585462" opacity="1.000000" stroke="none" 
	d="
M298.376587,396.624176 
	C297.487244,394.131195 296.725525,391.262024 295.705566,387.828674 
	C295.423706,386.866180 295.400116,386.467865 295.376526,386.069550 
	C295.384979,379.647705 295.393433,373.225830 295.526367,366.428711 
	C296.601959,376.118286 297.553101,386.183105 298.376587,396.624176 
z"/>
<path fill="#585462" opacity="1.000000" stroke="none" 
	d="
M295.855011,307.611328 
	C296.395996,297.877014 297.132690,287.792023 298.065521,277.349426 
	C297.524658,287.081451 296.787689,297.171021 295.855011,307.611328 
z"/>
<path fill="#947E73" opacity="1.000000" stroke="none" 
	d="
M156.167221,566.090210 
	C158.173599,561.503235 160.139526,556.897949 162.207932,552.339111 
	C162.947510,550.709167 163.934937,549.191711 164.856750,547.273804 
	C164.904297,546.924744 165.097626,546.584900 165.486023,546.280518 
	C167.950363,544.034546 170.026306,542.092896 172.049927,540.495117 
	C167.553162,548.276550 163.130768,555.727539 158.640076,563.137085 
	C157.982315,564.222351 156.999573,565.110718 156.167221,566.090210 
z"/>
<path fill="#545162" opacity="1.000000" stroke="none" 
	d="
M354.353943,574.649658 
	C351.228027,567.533264 348.215607,560.079285 345.153412,552.267822 
	C351.335327,558.077393 353.981323,565.743347 354.353943,574.649658 
z"/>
<path fill="#2E3658" opacity="1.000000" stroke="none" 
	d="
M258.990356,172.599457 
	C255.633255,173.034271 252.280045,173.047348 248.470901,173.040863 
	C247.738129,171.548584 247.461319,170.075867 247.111679,168.232010 
	C250.784988,167.935455 254.531128,168.010040 258.630249,168.021820 
	C258.986969,169.365250 258.990631,170.771469 258.990356,172.599457 
z"/>
<path fill="#545162" opacity="1.000000" stroke="none" 
	d="
M203.368958,428.038879 
	C202.189972,435.661896 200.761978,443.528778 199.091476,451.693054 
	C200.272629,444.087891 201.696289,436.185333 203.368958,428.038879 
z"/>
<path fill="#545162" opacity="1.000000" stroke="none" 
	d="
M313.478027,476.885742 
	C311.764954,471.435669 310.142242,465.566559 308.601257,459.378174 
	C310.311462,464.861481 311.939911,470.664093 313.478027,476.885742 
z"/>
<path fill="#545162" opacity="1.000000" stroke="none" 
	d="
M198.304672,453.996033 
	C197.183350,459.986542 195.804153,466.204712 194.189682,472.710358 
	C195.318542,466.739807 196.682678,460.481750 198.304672,453.996033 
z"/>
<path fill="#545162" opacity="1.000000" stroke="none" 
	d="
M210.554565,361.159668 
	C211.008820,366.000916 211.221954,371.125153 211.517578,377.068542 
	C211.585602,378.363007 211.571106,378.838379 211.556625,379.313721 
	C211.274689,379.243805 210.992767,379.173859 210.281525,379.029358 
	C210.005951,373.117432 210.159698,367.280060 210.554565,361.159668 
z"/>
<path fill="#585462" opacity="1.000000" stroke="none" 
	d="
M303.541687,431.797546 
	C302.413544,426.681854 301.377472,421.121155 300.436707,415.122772 
	C301.565887,420.240906 302.599792,425.796753 303.541687,431.797546 
z"/>
<path fill="#545162" opacity="1.000000" stroke="none" 
	d="
M206.409836,408.070312 
	C205.886642,413.662292 205.126953,419.516296 204.138351,425.682861 
	C204.664078,420.107758 205.418716,414.220001 206.409836,408.070312 
z"/>
<path fill="#2E3658" opacity="1.000000" stroke="none" 
	d="
M301.408264,114.841248 
	C300.558716,111.794899 300.009430,108.569420 299.237274,105.014687 
	C300.413696,105.292076 303.014648,105.914886 303.006744,106.502625 
	C302.970154,109.227791 302.209747,111.943214 301.408264,114.841248 
z"/>
<path fill="#2E3658" opacity="1.000000" stroke="none" 
	d="
M211.213898,98.828751 
	C216.007477,98.533470 221.184036,98.444595 226.760956,98.490692 
	C221.973160,98.762169 216.785019,98.898666 211.213898,98.828751 
z"/>
<path fill="#545162" opacity="1.000000" stroke="none" 
	d="
M208.460938,390.101379 
	C208.252563,395.001221 207.808914,400.172028 207.122147,405.667969 
	C207.327911,400.786194 207.776779,395.579254 208.460938,390.101379 
z"/>
<path fill="#545162" opacity="1.000000" stroke="none" 
	d="
M318.399506,493.931091 
	C316.734558,489.441650 315.162231,484.553284 313.656036,479.355286 
	C315.312134,483.874542 316.902130,488.703339 318.399506,493.931091 
z"/>
<path fill="#585462" opacity="1.000000" stroke="none" 
	d="
M300.428192,411.628357 
	C299.601929,407.875061 298.906036,403.753967 298.304932,399.184814 
	C299.119385,402.911346 299.838989,407.085968 300.428192,411.628357 
z"/>
<path fill="#585462" opacity="1.000000" stroke="none" 
	d="
M298.636536,275.001556 
	C298.889587,271.392914 299.366882,267.516602 300.065216,263.317688 
	C299.811127,266.908020 299.335938,270.820953 298.636536,275.001556 
z"/>
<path fill="#545162" opacity="1.000000" stroke="none" 
	d="
M172.102234,540.151184 
	C170.026306,542.092896 167.950363,544.034546 165.575027,546.106445 
	C167.598373,543.199707 169.921097,540.162659 172.624649,537.382812 
	C173.054199,538.123413 173.102921,538.606873 172.965698,539.255981 
	C172.538574,539.650513 172.312729,539.893738 172.102234,540.151184 
z"/>
<path fill="#2E3658" opacity="1.000000" stroke="none" 
	d="
M309.249023,60.758453 
	C308.194122,58.827770 307.404572,56.658371 306.312805,54.325962 
	C307.243103,53.875591 308.475586,53.588230 309.708038,53.300873 
	C309.643494,55.707161 309.578949,58.113453 309.249023,60.758453 
z"/>
<path fill="#545162" opacity="1.000000" stroke="none" 
	d="
M204.974823,233.534149 
	C204.791473,236.832932 204.251633,240.133240 203.657684,243.837540 
	C200.201630,238.908951 200.447098,236.319244 204.974823,233.534149 
z"/>
<path fill="#2E3658" opacity="1.000000" stroke="none" 
	d="
M246.625549,56.053047 
	C244.168961,58.874397 241.364517,61.756161 238.269653,64.798508 
	C239.083221,60.451221 242.009064,57.652496 246.625549,56.053047 
z"/>
<path fill="#545162" opacity="1.000000" stroke="none" 
	d="
M308.367279,455.894348 
	C307.330231,452.441071 306.402588,448.569824 305.560699,444.369934 
	C306.589844,447.853027 307.533264,451.664673 308.367279,455.894348 
z"/>
<path fill="#545162" opacity="1.000000" stroke="none" 
	d="
M303.803528,240.654053 
	C302.514740,238.771912 301.452087,236.583618 300.204926,234.097778 
	C304.748932,233.574356 305.552399,234.886505 303.803528,240.654053 
z"/>
<path fill="#947E73" opacity="1.000000" stroke="none" 
	d="
M173.151657,539.090271 
	C173.102921,538.606873 173.054199,538.123413 172.945786,537.280212 
	C172.886093,536.920410 173.099609,536.573730 173.202011,536.397766 
	C174.864365,533.847595 176.424332,531.473389 178.290863,529.287292 
	C176.782181,532.680359 174.966919,535.885315 173.151657,539.090271 
z"/>
<path fill="#2E3658" opacity="1.000000" stroke="none" 
	d="
M256.822510,53.709446 
	C254.603210,54.021217 252.206421,54.041718 249.452240,54.139107 
	C251.201385,50.068207 253.795822,50.537594 256.822510,53.709446 
z"/>
<path fill="#2E3658" opacity="1.000000" stroke="none" 
	d="
M198.933624,71.280869 
	C199.654556,73.064484 200.218155,75.173515 200.789978,77.651848 
	C200.124222,75.882858 199.450256,73.744576 198.933624,71.280869 
z"/>
<path fill="#2E3658" opacity="1.000000" stroke="none" 
	d="
M196.311310,57.120449 
	C197.016403,59.270035 197.567261,61.734692 198.104752,64.596313 
	C197.446609,62.474033 196.801834,59.954777 196.311310,57.120449 
z"/>
<path fill="#545162" opacity="1.000000" stroke="none" 
	d="
M208.726059,285.321228 
	C209.182724,286.862732 209.512421,288.717987 209.732208,290.896149 
	C209.281235,289.357727 208.940155,287.496338 208.726059,285.321228 
z"/>
<path fill="#545162" opacity="1.000000" stroke="none" 
	d="
M305.550842,441.905029 
	C304.926758,440.381317 304.409485,438.463501 303.990295,436.248840 
	C304.611481,437.804993 305.134583,439.657928 305.550842,441.905029 
z"/>
<path fill="#2E3658" opacity="1.000000" stroke="none" 
	d="
M232.815765,173.054977 
	C233.123322,173.444260 233.108887,173.666672 232.658661,174.238770 
	C230.545166,174.616989 228.867493,174.645493 227.189804,174.673996 
	C227.189804,174.673996 227.116058,174.247192 227.067963,174.035461 
	C228.844482,173.511841 230.669113,173.199982 232.815765,173.054977 
z"/>
<path fill="#2E3658" opacity="1.000000" stroke="none" 
	d="
M299.765320,98.651855 
	C300.428925,97.275085 301.449982,95.848976 302.705261,94.196899 
	C304.016235,96.740608 302.571045,97.976562 299.765320,98.651855 
z"/>
<path fill="#2E3658" opacity="1.000000" stroke="none" 
	d="
M200.812256,53.781303 
	C199.656479,54.472095 198.314087,54.921803 196.638367,55.495026 
	C196.919052,53.208218 197.818832,51.391956 200.812256,53.781303 
z"/>
<path fill="#2E3658" opacity="1.000000" stroke="none" 
	d="
M228.575287,78.078293 
	C228.100876,79.749283 227.983887,83.018059 224.795227,79.629280 
	C225.891632,78.965294 227.058197,78.566864 228.575287,78.078293 
z"/>
<path fill="#2E3658" opacity="1.000000" stroke="none" 
	d="
M204.074524,95.181580 
	C205.187378,95.992668 206.215179,97.073303 207.402008,98.440491 
	C206.370529,97.635063 205.179993,96.543091 204.074524,95.181580 
z"/>
<path fill="#2E3658" opacity="1.000000" stroke="none" 
	d="
M201.281189,85.883446 
	C201.933960,87.060356 202.545654,88.644257 203.149658,90.608238 
	C202.508026,89.422363 201.874084,87.856400 201.281189,85.883446 
z"/>
<path fill="#545162" opacity="1.000000" stroke="none" 
	d="
M209.442230,383.033997 
	C209.558075,384.330505 209.461105,385.851288 209.141541,387.684204 
	C209.022430,386.416992 209.125916,384.837677 209.442230,383.033997 
z"/>
<path fill="#2E3658" opacity="1.000000" stroke="none" 
	d="
M281.727234,79.049820 
	C281.096893,81.442062 279.877686,82.519440 278.057465,79.300842 
	C279.093445,79.016968 280.201782,79.026352 281.727234,79.049820 
z"/>
<path fill="#2E3658" opacity="1.000000" stroke="none" 
	d="
M290.983582,67.241585 
	C290.400024,68.321907 289.483154,69.505493 288.289307,70.856384 
	C288.891663,69.797401 289.770966,68.571121 290.983582,67.241585 
z"/>
<path fill="#2E3658" opacity="1.000000" stroke="none" 
	d="
M260.841919,167.681259 
	C261.463348,166.902679 262.423004,166.056213 263.695770,165.129242 
	C263.065948,165.903610 262.123047,166.758499 260.841919,167.681259 
z"/>
<path fill="#2E3658" opacity="1.000000" stroke="none" 
	d="
M304.161926,54.306923 
	C303.581787,55.155304 302.655090,56.083191 301.426666,57.147324 
	C302.021729,56.317852 302.918549,55.352139 304.161926,54.306923 
z"/>
<path fill="#2E3658" opacity="1.000000" stroke="none" 
	d="
M307.179260,71.849152 
	C307.158142,71.163651 307.355377,70.333801 307.720703,69.228348 
	C307.725006,69.870102 307.561310,70.787445 307.179260,71.849152 
z"/>
<path fill="#545162" opacity="1.000000" stroke="none" 
	d="
M301.362244,255.955109 
	C301.243927,255.264496 301.334564,254.419479 301.587738,253.296326 
	C301.690552,253.945694 301.630859,254.873215 301.362244,255.955109 
z"/>
<path fill="#2E3658" opacity="1.000000" stroke="none" 
	d="
M201.091248,81.168472 
	C201.345642,81.810265 201.476532,82.714256 201.520569,83.887863 
	C201.278397,83.248535 201.123093,82.339607 201.091248,81.168472 
z"/>
<path fill="#2E3658" opacity="1.000000" stroke="none" 
	d="
M304.328552,85.786224 
	C304.464325,84.989929 304.846802,83.973999 305.471985,82.722855 
	C305.334869,83.513954 304.955078,84.540276 304.328552,85.786224 
z"/>
<path fill="#545162" opacity="1.000000" stroke="none" 
	d="
M302.285400,250.910660 
	C302.162140,250.228348 302.253143,249.403870 302.497070,248.305267 
	C302.599884,248.943573 302.549744,249.856049 302.285400,250.910660 
z"/>
<path fill="#2E3658" opacity="1.000000" stroke="none" 
	d="
M204.103821,115.096436 
	C204.418640,115.473969 204.667053,116.046486 204.848709,116.819931 
	C204.533768,116.444389 204.285599,115.867905 204.103821,115.096436 
z"/>
<path fill="#2E3658" opacity="1.000000" stroke="none" 
	d="
M286.893494,72.225288 
	C286.667206,72.720078 286.170593,73.374596 285.412201,74.205978 
	C285.641357,73.716911 286.132263,73.050964 286.893494,72.225288 
z"/>
<path fill="#2E3658" opacity="1.000000" stroke="none" 
	d="
M230.840942,74.195679 
	C230.645966,74.718163 230.190094,75.424881 229.468628,76.320679 
	C229.662033,75.799812 230.121033,75.089867 230.840942,74.195679 
z"/>
<path fill="#2E3658" opacity="1.000000" stroke="none" 
	d="
M219.705292,72.122055 
	C219.230179,71.836853 218.625412,71.253044 217.868469,70.390221 
	C218.336075,70.681953 218.955856,71.252701 219.705292,72.122055 
z"/>
<path fill="#2E3658" opacity="1.000000" stroke="none" 
	d="
M277.688354,77.199600 
	C277.239258,76.874031 276.679199,76.243698 276.019623,75.310387 
	C276.472534,75.636551 277.024933,76.265694 277.688354,77.199600 
z"/>
<path fill="#2E3658" opacity="1.000000" stroke="none" 
	d="
M283.903870,76.193817 
	C283.684692,76.705582 283.194153,77.392662 282.442749,78.273438 
	C282.665405,77.767799 283.148987,77.068466 283.903870,76.193817 
z"/>
<path fill="#2E3658" opacity="1.000000" stroke="none" 
	d="
M224.684906,78.927032 
	C224.226913,78.675789 223.639389,78.151619 222.911301,77.360901 
	C223.365616,77.614273 223.960495,78.134193 224.684906,78.927032 
z"/>
<path fill="#2E3658" opacity="1.000000" stroke="none" 
	d="
M277.928253,174.560806 
	C277.923645,174.331848 277.919006,174.102875 277.897949,173.532043 
	C278.498169,173.302719 279.114838,173.415253 279.858063,173.683685 
	C279.984589,173.839584 279.878876,174.279907 279.525818,174.483276 
	C278.757935,174.644699 278.343079,174.602753 277.928253,174.560806 
z"/>
<path fill="#C19E80" opacity="1.000000" stroke="none" 
	d="
M82.105972,439.782898 
	C60.433739,404.144287 48.129429,366.251190 48.318287,324.474030 
	C48.624176,256.809235 48.384602,189.142014 48.397060,121.475815 
	C48.398617,113.037437 49.518383,112.294235 57.379406,115.724762 
	C88.919052,129.488586 122.057617,133.681595 156.100601,131.972382 
	C166.556381,131.447418 176.966690,129.964615 187.388641,128.835785 
	C194.339722,128.082901 194.942703,128.897354 198.250595,134.771912 
	C202.227524,141.834610 206.961029,148.497360 211.690063,155.101929 
	C215.229218,160.044693 215.011597,161.321823 208.986465,162.658844 
	C172.113724,170.841232 135.042892,171.993088 97.776543,165.641388 
	C86.057968,163.644073 85.964806,163.706757 85.963463,175.595963 
	C85.958023,223.756958 86.508675,271.926147 85.790665,320.076447 
	C85.179428,361.067078 97.874001,397.339600 121.135185,430.441040 
	C135.092102,450.302216 151.274918,468.163727 169.652664,484.029846 
	C175.795273,489.333008 175.950363,489.669342 173.424194,497.252869 
	C170.949387,504.682098 168.398209,512.087524 165.760361,519.460388 
	C162.949493,527.316956 162.286591,527.503235 155.689041,522.033569 
	C127.150902,498.373962 102.191505,471.498077 82.105972,439.782898 
z"/>
<path fill="#BB9A7E" opacity="1.000000" stroke="none" 
	d="
M195.686050,210.728912 
	C199.556473,205.406677 204.440506,203.831223 210.638351,203.883682 
	C238.959686,204.123444 267.289673,204.307571 295.604675,203.821335 
	C305.894501,203.644638 310.729950,208.909256 315.382233,217.701202 
	C317.363342,221.445129 316.009674,223.292419 311.817505,223.693008 
	C310.494812,223.819382 309.154114,223.778244 307.821655,223.778549 
	C271.501099,223.786835 235.180542,223.791367 198.859985,223.791885 
	C197.527557,223.791901 196.187317,223.828430 194.864120,223.704636 
	C190.632996,223.308792 189.508499,221.674011 191.231689,217.738724 
	C192.283203,215.337296 194.017654,213.234909 195.686050,210.728912 
z"/>
<path fill="#8D7971" opacity="1.000000" stroke="none" 
	d="
M277.545624,174.676636 
	C278.343079,174.602753 278.757935,174.644699 279.484741,174.705933 
	C283.892883,179.264160 288.540802,183.429962 291.932251,188.445404 
	C295.426544,193.612946 293.564026,196.577698 287.218964,196.641800 
	C269.902039,196.816711 252.582153,196.694199 235.263443,196.698807 
	C229.936325,196.700211 224.605835,196.857956 219.283020,196.715347 
	C213.475525,196.559723 211.351013,193.469696 214.583679,188.702316 
	C217.967331,183.712250 222.652969,179.604980 226.979645,174.892914 
	C228.867493,174.645493 230.545166,174.616989 232.645844,174.572845 
	C247.766891,174.635605 262.464935,174.714035 277.545624,174.676636 
M219.155899,185.716507 
	C218.044144,188.031174 216.932404,190.345825 215.820648,192.660492 
	C218.304962,193.196243 220.786301,194.180237 223.274048,194.196655 
	C242.751434,194.325089 262.230072,194.272095 281.708313,194.260529 
	C283.370911,194.259537 285.045502,194.259232 286.693298,194.071915 
	C289.474823,193.755692 290.346375,192.116989 289.589203,189.485062 
	C288.018524,184.025620 280.040161,177.889130 274.231537,177.864426 
	C261.079773,177.808487 247.916473,178.161972 234.780334,177.704224 
	C228.043610,177.469467 223.185608,179.655609 219.155899,185.716507 
z"/>
<path fill="#BE9C7F" opacity="1.000000" stroke="none" 
	d="
M247.625732,59.563004 
	C251.433197,55.491634 255.172195,55.313477 258.480225,59.352516 
	C264.449493,66.640961 270.479858,73.917854 275.865723,81.631783 
	C279.310669,86.565804 280.278503,86.757927 283.889221,82.111664 
	C289.182220,75.300621 294.994843,68.889664 300.684540,62.394485 
	C301.593048,61.357368 303.015472,60.770454 305.430359,59.150070 
	C305.430359,62.070873 305.683075,63.785435 305.387543,65.399628 
	C303.948120,73.262337 302.293854,81.085732 300.855469,88.948624 
	C300.094666,93.107620 297.706085,94.904869 293.583801,94.901237 
	C266.602631,94.877426 239.621445,94.875900 212.640320,94.913338 
	C208.932739,94.918480 206.749710,93.490578 206.051773,89.638771 
	C204.628342,81.782990 202.914810,73.980019 201.459381,66.129601 
	C201.144241,64.429794 201.413361,62.621666 201.413361,59.543110 
	C203.866699,61.171898 205.694260,61.904686 206.839508,63.227978 
	C212.055313,69.254684 217.018097,75.499962 222.211975,81.546280 
	C223.643768,83.213081 225.559052,84.464577 227.252472,85.906639 
	C228.328094,84.364624 229.335663,82.769493 230.490891,81.289619 
	C236.093384,74.112579 241.735504,66.966454 247.625732,59.563004 
z"/>
<path fill="#C19E80" opacity="1.000000" stroke="none" 
	d="
M277.340820,151.361359 
	C270.646118,156.007523 264.425873,160.784653 257.672150,164.623138 
	C255.371277,165.930847 251.160660,165.964966 248.789459,164.727875 
	C231.845139,155.887756 217.752518,144.015274 210.756149,125.493393 
	C209.416458,121.946762 208.680222,118.125412 208.058868,114.365807 
	C207.245926,109.446861 208.530609,107.918938 213.559326,107.812485 
	C221.222336,107.650284 228.890884,107.740791 236.557083,107.738625 
	C254.889771,107.733437 273.222534,107.705345 291.555115,107.752686 
	C298.574677,107.770805 299.751495,109.197266 298.458649,116.215439 
	C295.842102,130.418915 288.451569,141.814301 277.340820,151.361359 
z"/>
<path fill="#C39F80" opacity="1.000000" stroke="none" 
	d="
M172.965729,539.255981 
	C174.966919,535.885315 176.782181,532.680359 178.558807,529.094116 
	C178.648895,528.046631 178.777588,527.380493 179.302979,526.214966 
	C182.861298,517.296814 186.182800,508.932892 189.104355,500.431549 
	C190.242569,497.119507 190.479874,493.497864 191.127533,490.017242 
	C191.200684,489.619385 191.273834,489.221497 191.686554,488.325989 
	C192.506592,486.093445 192.987076,484.358490 193.467560,482.623535 
	C193.513229,482.277496 193.558899,481.931427 193.659164,481.329529 
	C195.449509,475.919403 197.825333,470.884399 198.811447,465.590485 
	C203.343216,441.261719 207.582367,416.876678 211.675201,392.469666 
	C212.352783,388.429016 211.781891,384.178986 211.672287,379.669739 
	C211.571106,378.838379 211.585602,378.363007 211.637634,377.533630 
	C212.410446,373.635345 213.742218,370.097778 213.782120,366.545715 
	C214.005707,346.646454 213.947433,326.743591 213.878052,306.842346 
	C213.872589,305.275421 213.048874,303.711304 212.370850,301.923889 
	C211.933014,299.043976 211.729736,296.386078 211.509216,293.268860 
	C211.431198,288.012299 211.816254,283.159149 211.223312,278.428589 
	C209.652878,265.899628 207.713348,253.415390 205.795593,240.932587 
	C205.328125,237.889847 206.502686,236.510300 209.375824,236.272995 
	C210.700836,236.163544 212.035278,236.127686 213.365463,236.127274 
	C239.996735,236.119019 266.628021,236.103973 293.259277,236.131409 
	C300.709686,236.139084 301.466125,236.836868 300.212555,244.296509 
	C294.962524,275.536713 291.850128,306.963135 292.198700,338.655090 
	C292.352295,352.618866 293.261871,366.575287 293.909088,380.531342 
	C293.984589,382.159485 294.577240,383.763672 295.153351,385.724243 
	C295.400116,386.467865 295.423706,386.866180 295.470276,387.564178 
	C295.769135,393.159180 295.726288,398.493652 296.371490,403.743591 
	C301.547821,445.862274 311.446869,486.861908 326.114594,526.680786 
	C327.567780,530.625854 330.166412,534.148865 332.547729,537.991577 
	C332.862061,538.115417 333.068542,538.454956 333.222839,538.958862 
	C334.882568,541.009827 336.387939,542.556885 337.893341,544.104004 
	C337.893341,544.104004 338.104462,544.442261 338.234375,544.935120 
	C339.192322,546.332153 340.020355,547.236389 340.848389,548.140564 
	C340.848389,548.140564 341.013184,548.507080 341.098633,548.688965 
	C344.136902,555.604797 347.406891,562.223022 349.924194,569.116089 
	C351.448242,573.289246 353.114014,578.043701 348.233948,582.054932 
	C284.934021,582.296387 221.929565,582.284607 158.146957,582.090149 
	C156.188904,581.693726 155.009003,581.480042 153.829086,581.266357 
	C153.730377,580.114441 153.631668,578.962524 153.795746,577.098633 
	C154.523590,573.835510 154.988632,571.284363 155.453674,568.733276 
	C155.622986,568.069946 155.792313,567.406677 156.064423,566.416748 
	C156.999573,565.110718 157.982315,564.222351 158.640076,563.137085 
	C163.130768,555.727539 167.553162,548.276550 172.049927,540.495117 
	C172.312729,539.893738 172.538574,539.650513 172.965729,539.255981 
M280.838654,426.169891 
	C278.783600,404.800140 275.890961,383.470367 274.867462,362.051331 
	C273.284058,328.913239 274.350861,295.786530 279.426239,262.889191 
	C280.528534,255.744522 279.087158,254.337585 271.815765,254.311417 
	C261.155273,254.273026 250.494553,254.300293 239.833939,254.295700 
	C226.204880,254.289825 226.201447,254.288620 227.939362,267.895935 
	C233.258423,309.542755 233.876465,351.253448 229.617111,393.027283 
	C225.906357,429.420593 218.936951,465.164124 208.371933,500.206268 
	C207.771606,502.197449 208.419907,504.565033 208.487061,506.757416 
	C210.438843,506.140411 212.562988,505.832672 214.314545,504.856445 
	C225.933792,498.380554 237.370667,491.567230 249.129135,485.360413 
	C251.351578,484.187286 255.172867,484.333527 257.525482,485.433807 
	C264.893036,488.879456 271.959106,492.987549 279.048981,497.003143 
	C284.403564,500.035828 289.571930,503.397522 294.931244,506.421326 
	C295.893097,506.964020 297.527100,506.911377 298.559174,506.462738 
	C299.021118,506.261963 299.052490,504.326141 298.779846,503.311951 
	C297.743347,499.456116 296.256744,495.710602 295.379761,491.824280 
	C290.509644,470.242188 285.769165,448.630829 280.838654,426.169891 
z"/>
<path fill="#897670" opacity="1.000000" stroke="none" 
	d="
M155.226288,568.970825 
	C154.988632,571.284363 154.523590,573.835510 153.793732,576.664429 
	C154.018921,574.364258 154.508926,571.786377 155.226288,568.970825 
z"/>
<path fill="#897670" opacity="1.000000" stroke="none" 
	d="
M153.988708,581.515381 
	C155.009003,581.480042 156.188904,581.693726 157.677612,582.096252 
	C156.707077,582.111450 155.427719,581.937927 153.988708,581.515381 
z"/>
<path fill="#947E73" opacity="1.000000" stroke="none" 
	d="
M190.895996,490.296661 
	C190.479874,493.497864 190.242569,497.119507 189.104355,500.431549 
	C186.182800,508.932892 182.861298,517.296814 179.404083,525.889893 
	C180.871735,520.364197 182.566879,514.642151 184.416595,508.970490 
	C186.424225,502.814575 188.575699,496.705536 190.895996,490.296661 
z"/>
<path fill="#947E73" opacity="1.000000" stroke="none" 
	d="
M193.229919,482.855042 
	C192.987076,484.358490 192.506592,486.093445 191.759445,488.031403 
	C191.992615,486.518463 192.492447,484.802521 193.229919,482.855042 
z"/>
<path fill="#897670" opacity="1.000000" stroke="none" 
	d="
M337.831116,543.771851 
	C336.387939,542.556885 334.882568,541.009827 333.329010,539.126770 
	C334.776855,540.340454 336.272858,541.890137 337.831116,543.771851 
z"/>
<path fill="#897670" opacity="1.000000" stroke="none" 
	d="
M340.799988,547.826294 
	C340.020355,547.236389 339.192322,546.332153 338.341339,545.103394 
	C339.129425,545.689880 339.940491,546.600952 340.799988,547.826294 
z"/>
<path fill="#C5A181" opacity="1.000000" stroke="none" 
	d="
M219.373383,185.428253 
	C223.185608,179.655609 228.043610,177.469467 234.780334,177.704224 
	C247.916473,178.161972 261.079773,177.808487 274.231537,177.864426 
	C280.040161,177.889130 288.018524,184.025620 289.589203,189.485062 
	C290.346375,192.116989 289.474823,193.755692 286.693298,194.071915 
	C285.045502,194.259232 283.370911,194.259537 281.708313,194.260529 
	C262.230072,194.272095 242.751434,194.325089 223.274048,194.196655 
	C220.786301,194.180237 218.304962,193.196243 215.820648,192.660492 
	C216.932404,190.345825 218.044144,188.031174 219.373383,185.428253 
z"/>
<path fill="#585462" opacity="1.000000" stroke="none" 
	d="
M280.911499,426.599701 
	C285.769165,448.630829 290.509644,470.242188 295.379761,491.824280 
	C296.256744,495.710602 297.743347,499.456116 298.779846,503.311951 
	C299.052490,504.326141 299.021118,506.261963 298.559174,506.462738 
	C297.527100,506.911377 295.893097,506.964020 294.931244,506.421326 
	C289.571930,503.397522 284.403564,500.035828 279.048981,497.003143 
	C271.959106,492.987549 264.893036,488.879456 257.525482,485.433807 
	C255.172867,484.333527 251.351578,484.187286 249.129135,485.360413 
	C237.370667,491.567230 225.933792,498.380554 214.314545,504.856445 
	C212.562988,505.832672 210.438843,506.140411 208.487061,506.757446 
	C208.419907,504.565033 207.771606,502.197449 208.371933,500.206268 
	C218.936951,465.164124 225.906357,429.420593 229.617111,393.027283 
	C233.876465,351.253448 233.258423,309.542755 227.939362,267.895935 
	C226.201447,254.288620 226.204880,254.289825 239.833939,254.295700 
	C250.494553,254.300293 261.155273,254.273026 271.815765,254.311417 
	C279.087158,254.337585 280.528534,255.744522 279.426239,262.889191 
	C274.350861,295.786530 273.284058,328.913239 274.867462,362.051331 
	C275.890961,383.470367 278.783600,404.800140 280.911499,426.599701 
M287.428986,476.160828 
	C286.342407,470.956879 285.145111,465.773193 284.189636,460.545288 
	C281.118103,443.739319 277.541016,426.996185 275.291321,410.078186 
	C273.167480,394.106445 271.961456,377.965332 271.301483,361.859802 
	C270.662323,346.260864 270.739990,330.591278 271.407745,314.991455 
	C272.104004,298.725800 273.916809,282.509186 275.168182,266.265442 
	C275.653259,259.968811 274.547424,258.721649 268.434265,258.677887 
	C257.607971,258.600342 246.780319,258.593689 235.954117,258.674622 
	C230.516983,258.715271 229.587601,260.414612 230.359543,265.904755 
	C231.999985,277.572205 234.197571,289.264618 234.521225,300.992218 
	C235.178024,324.792480 235.070084,348.629272 234.609818,372.438080 
	C234.398560,383.365936 232.947586,394.309692 231.452499,405.162689 
	C229.620117,418.464325 227.473755,431.741882 224.871246,444.912933 
	C222.172760,458.569824 218.792404,472.092926 215.656158,485.661987 
	C214.495575,490.683411 213.180939,495.669220 211.936554,500.671265 
	C212.382263,500.940948 212.827972,501.210632 213.273682,501.480347 
	C215.308472,500.537933 217.422348,499.734497 219.364426,498.629181 
	C227.895309,493.773743 236.410446,488.888489 244.863770,483.899658 
	C250.410919,480.625885 255.839218,480.669403 261.366577,483.853760 
	C270.299225,488.999939 279.241577,494.129669 288.214233,499.205566 
	C289.933807,500.178314 291.811829,500.870911 294.703796,502.187744 
	C292.059723,492.864929 289.806763,484.921051 287.428986,476.160828 
z"/>
<path fill="#1F2B54" opacity="1.000000" stroke="none" 
	d="
M287.491394,476.569031 
	C289.806763,484.921051 292.059723,492.864929 294.703796,502.187744 
	C291.811829,500.870911 289.933807,500.178314 288.214233,499.205566 
	C279.241577,494.129669 270.299225,488.999939 261.366577,483.853760 
	C255.839218,480.669403 250.410919,480.625885 244.863770,483.899658 
	C236.410446,488.888489 227.895309,493.773743 219.364426,498.629181 
	C217.422348,499.734497 215.308472,500.537933 213.273682,501.480347 
	C212.827972,501.210632 212.382263,500.940948 211.936554,500.671265 
	C213.180939,495.669220 214.495575,490.683411 215.656158,485.661987 
	C218.792404,472.092926 222.172760,458.569824 224.871246,444.912933 
	C227.473755,431.741882 229.620117,418.464325 231.452499,405.162689 
	C232.947586,394.309692 234.398560,383.365936 234.609818,372.438080 
	C235.070084,348.629272 235.178024,324.792480 234.521225,300.992218 
	C234.197571,289.264618 231.999985,277.572205 230.359543,265.904755 
	C229.587601,260.414612 230.516983,258.715271 235.954117,258.674622 
	C246.780319,258.593689 257.607971,258.600342 268.434265,258.677887 
	C274.547424,258.721649 275.653259,259.968811 275.168182,266.265442 
	C273.916809,282.509186 272.104004,298.725800 271.407745,314.991455 
	C270.739990,330.591278 270.662323,346.260864 271.301483,361.859802 
	C271.961456,377.965332 273.167480,394.106445 275.291321,410.078186 
	C277.541016,426.996185 281.118103,443.739319 284.189636,460.545288 
	C285.145111,465.773193 286.342407,470.956879 287.491394,476.569031 
z"/>
</svg>